<svg width="23.999999999999996" height="23.999999999999996" xmlns="http://www.w3.org/2000/svg">

 <g>
  <title>background</title>
  <rect fill="none" id="canvas_background" height="402" width="582" y="-1" x="-1"/>
 </g>
 <g>
  <title>Layer 1</title>
  <path id="svg_1" d="m5,12l-2,0c-1.1,0 -2,0.9 -2,2l0,6c0,1.1 0.9,2 2,2l2,0c1.1,0 2,-0.9 2,-2l0,-6c0,-1.1 -0.9,-2 -2,-2z"/>
  <path id="svg_2" d="m13,2l-2,0c-1.1,0 -2,0.9 -2,2l0,16c0,1.1 0.9,2 2,2l2,0c1.1,0 2,-0.9 2,-2l0,-16c0,-1.1 -0.9,-2 -2,-2z"/>
  <path id="svg_3" d="m21,8l-2,0c-1.1,0 -2,0.9 -2,2l0,10c0,1.1 0.9,2 2,2l2,0c1.1,0 2,-0.9 2,-2l0,-10c0,-1.1 -0.9,-2 -2,-2z"/>
 </g>
</svg>